<?xml version="1.0" encoding="utf-8"?>
<!-- Generator: Adobe Illustrator 16.0.0, SVG Export Plug-In . SVG Version: 6.00 Build 0)  -->
<!DOCTYPE svg PUBLIC "-//W3C//DTD SVG 1.1//EN" "http://www.w3.org/Graphics/SVG/1.1/DTD/svg11.dtd">
<svg version="1.1" id="Layer_1" xmlns="http://www.w3.org/2000/svg" xmlns:xlink="http://www.w3.org/1999/xlink" x="0px" y="0px"
	 width="100px" height="150px" viewBox="0 0 100 150" enable-background="new 0 0 100 150" xml:space="preserve">
<g transform="translate(-100)">
	<polygon fill="none" stroke="#4DAF4E" stroke-width="2" stroke-linecap="square" stroke-miterlimit="10" points="172.533,28.288 
		171.32,20.619 167.798,13.722 162.313,8.236 155.42,4.71 147.777,3.498 140.135,4.71 133.22,8.236 127.758,13.722 124.233,20.619 
		123.022,28.288 124.233,35.956 127.758,42.853 133.22,48.339 140.135,51.865 147.777,53.077 155.42,51.865 162.313,48.339 
		167.798,42.853 171.32,35.956 172.533,28.288 	"/>
	
		<line fill="none" stroke="#4DAF4E" stroke-width="2" stroke-linecap="square" stroke-miterlimit="10" x1="193.896" y1="145.844" x2="101.659" y2="145.844"/>
	
		<line fill="none" stroke="#4DAF4E" stroke-width="2" stroke-linecap="square" stroke-miterlimit="10" x1="193.896" y1="91.152" x2="193.896" y2="145.844"/>
	
		<line fill="none" stroke="#4DAF4E" stroke-width="2" stroke-linecap="square" stroke-miterlimit="10" x1="101.659" y1="145.844" x2="101.659" y2="91.152"/>
	<polyline fill="none" stroke="#4DAF4E" stroke-width="2" stroke-linecap="square" stroke-miterlimit="10" points="193.896,91.152 
		189.16,82.69 182.885,75.287 175.308,69.229 166.718,64.733 157.424,61.957 147.777,61.031 138.131,61.957 128.836,64.733 
		120.247,69.229 112.671,75.287 106.394,82.69 101.659,91.152 	"/>
	<polyline fill="none" stroke="#4DAF4E" stroke-width="2" stroke-linecap="square" stroke-miterlimit="10" points="152.205,109.287 
		153.195,114.313 156.015,118.563 160.266,121.385 165.265,122.397 170.286,121.385 174.515,118.563 177.355,114.313 
		178.347,109.287 	"/>
	<polyline fill="none" stroke="#4DAF4E" stroke-width="2" stroke-linecap="square" stroke-miterlimit="10" points="165.265,82.251 
		160,87.87 155.948,94.414 153.328,101.664 152.205,109.287 	"/>
	<polyline fill="none" stroke="#4DAF4E" stroke-width="2" stroke-linecap="square" stroke-miterlimit="10" points="178.347,109.287 
		177.224,101.664 174.603,94.414 170.551,87.87 165.265,82.251 	"/>
	<polyline fill="none" stroke="#4DAF4E" stroke-width="2" stroke-linecap="square" stroke-miterlimit="10" points="165.507,117.065 
		169.186,116.162 172.026,113.673 173.413,110.147 173.018,106.38 	"/>
</g>
</svg>
